<svg xmlns="http://www.w3.org/2000/svg" version="1.1" xmlns:xlink="http://www.w3.org/1999/xlink" xmlns:svgjs="http://svgjs.dev/svgjs" width="1440" height="560" preserveAspectRatio="none" viewBox="0 0 1440 560"><g mask="url(&quot;#SvgjsMask1005&quot;)" fill="none"><rect width="1440" height="560" x="0" y="0" fill="rgba(242, 213, 223, 1)"></rect><path d="M -177.87943404599292,377 C -81.88,337.2 110.12,164.8 302.1205659540071,178 C 494.12,191.2 590.12,430.8 782.1205659540071,443 C 974.12,455.2 1070.12,239.4 1262.1205659540071,239 C 1454.12,238.6 1706.54,444.6 1742.1205659540071,441 C 1777.7,437.4 1500.42,265 1440,221" stroke="rgba(233, 197, 209, 1)" stroke-width="2"></path><path d="M -201.09325445196856,339 C -105.09,314 86.91,198 278.90674554803144,214 C 470.91,230 566.91,444.6 758.9067455480315,419 C 950.91,393.4 1046.91,105 1238.9067455480315,86 C 1430.91,67 1678.69,309.6 1718.9067455480315,324 C 1759.13,338.4 1495.78,191.2 1440,158" stroke="rgba(233, 197, 209, 1)" stroke-width="2"></path><path d="M -231.0594746439802,213 C -135.06,241.4 56.94,348.4 248.9405253560198,355 C 440.94,361.6 536.94,230.8 728.9405253560199,246 C 920.94,261.2 1016.94,433 1208.9405253560199,431 C 1400.94,429 1642.73,240.4 1688.9405253560199,236 C 1735.15,231.6 1489.79,374.4 1440,409" stroke="rgba(233, 197, 209, 1)" stroke-width="2"></path><path d="M -928.2650987755621,235 C -832.27,269.6 -640.27,401.2 -448.2650987755622,408 C -256.27,414.8 -160.27,270.6 31.734901224437806,269 C 223.73,267.4 319.73,420 511.7349012244378,400 C 703.73,380 806.08,188.8 991.7349012244379,169 C 1177.39,149.2 1350.35,274.6 1440,301" stroke="rgba(233, 197, 209, 1)" stroke-width="2"></path></g><defs><mask id="SvgjsMask1005"><rect width="1440" height="560" fill="#ffffff"></rect></mask></defs></svg>